<svg width="40" height="40" viewBox="0 0 40 40" fill="none" xmlns="http://www.w3.org/2000/svg">
<rect width="40" height="40" rx="12" fill="#34ABE0"/>
<path d="M13.0571 20.3L15.3617 26.6787C15.3617 26.6787 15.6498 27.2755 15.9584 27.2755C16.2669 27.2755 20.8558 22.5016 20.8558 22.5016L25.9588 12.6452L13.1394 18.6534L13.0571 20.3Z" fill="#C8DAEA"/>
<path d="M16.1127 21.9359L15.6703 26.6376C15.6703 26.6376 15.4852 28.0783 16.9255 26.6376C18.3658 25.1969 19.7445 24.086 19.7445 24.086" fill="#A9C6D8"/>
<path d="M13.0989 20.5276L8.3583 18.983C8.3583 18.983 7.79175 18.7531 7.97418 18.2319C8.01174 18.1244 8.08749 18.033 8.31411 17.8758C9.3645 17.1436 27.7559 10.5333 27.7559 10.5333C27.7559 10.5333 28.2752 10.3583 28.5814 10.4747C28.6572 10.4981 28.7254 10.5413 28.779 10.5997C28.8326 10.6582 28.8697 10.7298 28.8866 10.8073C28.9197 10.9442 28.9335 11.085 28.9277 11.2258C28.9262 11.3475 28.9115 11.4603 28.9003 11.6372C28.7883 13.4445 25.4363 26.933 25.4363 26.933C25.4363 26.933 25.2357 27.7223 24.5172 27.7493C24.3406 27.755 24.1646 27.7251 23.9999 27.6614C23.8351 27.5976 23.6848 27.5014 23.5581 27.3783C22.148 26.1654 17.2744 22.8901 16.1974 22.1698C16.1731 22.1532 16.1527 22.1316 16.1374 22.1065C16.1222 22.0814 16.1125 22.0533 16.109 22.0241C16.094 21.9482 16.1765 21.8541 16.1765 21.8541C16.1765 21.8541 24.6628 14.3109 24.8887 13.519C24.9061 13.4576 24.8401 13.4274 24.7514 13.4543C24.1877 13.6616 14.4168 19.832 13.3385 20.513C13.2608 20.5365 13.1788 20.5415 13.0989 20.5276Z" fill="white"/>
</svg>
