<svg width="40" height="40" viewBox="0 0 40 40" fill="none" xmlns="http://www.w3.org/2000/svg">
<rect width="40" height="40" rx="12" fill="#3BCD40"/>
<path d="M28.7178 11.5386C26.4388 9.25773 23.408 8.00095 20.1788 7.99967C13.5253 7.99967 8.11022 13.4127 8.10756 20.0662C8.10671 22.193 8.66255 24.2691 9.71887 26.099L8.00635 32.3523L14.4055 30.6742C16.1686 31.6356 18.1536 32.1422 20.174 32.143H20.1789C26.8317 32.143 32.2473 26.7294 32.25 20.0758C32.2513 16.8514 30.9969 13.8196 28.7178 11.5386ZM20.1789 30.105H20.1748C18.3745 30.1043 16.6087 29.6208 15.0683 28.707L14.7019 28.4896L10.9046 29.4854L11.9182 25.7842L11.6795 25.4048C10.6752 23.8079 10.1448 21.9621 10.1456 20.067C10.1478 14.5369 14.6486 10.0378 20.1828 10.0378C22.8626 10.0388 25.3817 11.0835 27.276 12.9792C29.1702 14.875 30.2129 17.3951 30.2119 20.075C30.2097 25.6056 25.7089 30.105 20.1789 30.105ZM25.6823 22.5932C25.3806 22.4422 23.8977 21.7128 23.6213 21.6122C23.3448 21.5115 23.1438 21.4612 22.9426 21.7631C22.7416 22.0649 22.1636 22.7441 21.9876 22.9453C21.8116 23.1466 21.6357 23.1718 21.3341 23.0208C21.0325 22.8699 20.0606 22.5515 18.9086 21.5243C18.012 20.7248 17.4066 19.7373 17.2307 19.4354C17.0547 19.1336 17.212 18.9704 17.3629 18.8201C17.4986 18.685 17.6646 18.4679 17.8154 18.2918C17.9662 18.1158 18.0164 17.99 18.117 17.7888C18.2175 17.5875 18.1672 17.4114 18.0918 17.2605C18.0165 17.1096 17.4132 15.6255 17.1619 15.0218C16.9171 14.4338 16.6684 14.5134 16.4832 14.5041C16.3075 14.4954 16.1062 14.4935 15.9052 14.4935C15.7041 14.4935 15.3773 14.569 15.1009 14.8709C14.8244 15.1727 14.0452 15.9022 14.0452 17.3863C14.0452 18.8704 15.126 20.3042 15.2768 20.5054C15.4276 20.7066 17.4036 23.7522 20.4293 25.0583C21.1489 25.3689 21.7107 25.5544 22.1487 25.6934C22.8713 25.9228 23.5288 25.8905 24.0485 25.8129C24.628 25.7263 25.833 25.0835 26.0844 24.3792C26.3357 23.6748 26.3357 23.0711 26.2603 22.9454C26.1849 22.8196 25.9839 22.7441 25.6823 22.5932Z" fill="white"/>
</svg>
