<svg width="40" height="40" viewBox="0 0 40 40" fill="none" xmlns="http://www.w3.org/2000/svg">
<rect width="40" height="40" rx="12" fill="#4C4C4C"/>
<path d="M16.0861 25.4091L10.9074 26.6878L11.9943 22.2763C10.9074 20.8697 10.2681 19.0796 10.2681 17.2255C10.2681 12.1746 14.9353 8.08282 20.6894 8.08282C26.4435 8.08282 31.1107 12.1746 31.1107 17.2255C31.1107 22.2763 26.4435 26.3681 20.6894 26.3681C19.091 26.3681 17.4927 26.0484 16.15 25.473L16.0861 25.4091ZM17.6845 16.3943H17.5566C17.3009 16.3943 17.1091 16.5861 17.173 16.8418V20.9976C17.173 21.2533 17.3648 21.4451 17.6205 21.4451H23.7582C24.014 21.4451 24.2058 21.2533 24.2058 20.9976V16.8418C24.2058 16.5861 24.014 16.3943 23.7582 16.3943H23.6304V15.2435C23.6304 13.6451 22.2877 12.3025 20.6894 12.3025C19.091 12.3025 17.7484 13.6451 17.7484 15.2435V16.3943H17.6845ZM22.4156 16.3943H18.8992V15.2435C18.8992 14.2845 19.6664 13.4533 20.6894 13.4533C21.6484 13.4533 22.4795 14.2205 22.4795 15.2435V16.3943H22.4156Z" fill="white"/>
<path d="M16.0596 30.4599C16.0596 29.4715 15.2577 28.6697 14.2694 28.6697C13.2811 28.6697 12.4792 29.4715 12.4792 30.4599C12.4792 31.4482 13.2811 32.25 14.2694 32.25C15.2577 32.25 16.0596 31.4482 16.0596 30.4599Z" fill="#3FE669"/>
<path d="M22.4526 30.4599C22.4526 29.4715 21.6508 28.6697 20.6625 28.6697C19.6742 28.6697 18.8723 29.4715 18.8723 30.4599C18.8723 31.4482 19.6742 32.25 20.6625 32.25C21.6508 32.25 22.4526 31.4482 22.4526 30.4599Z" fill="#3FE669"/>
<path d="M28.8464 30.4599C28.8464 29.4715 28.0446 28.6697 27.0563 28.6697C26.068 28.6697 25.2661 29.4715 25.2661 30.4599C25.2661 31.4482 26.068 32.25 27.0563 32.25C28.0446 32.25 28.8464 31.4482 28.8464 30.4599Z" fill="#3FE669"/>
</svg>
