<svg width="40" height="40" viewBox="0 0 40 40" fill="none" xmlns="http://www.w3.org/2000/svg">
<rect width="40" height="40" rx="12" fill="#3A76F0"/>
<path d="M17.4792 9.80653L17.7149 10.7611C16.786 10.9907 15.897 11.3588 15.0778 11.853L14.5736 11.0087C15.4754 10.4626 16.4552 10.0572 17.4792 9.80653ZM22.5208 9.80653L22.2851 10.7611C23.214 10.9907 24.103 11.3588 24.9222 11.853L25.4323 11.0087C24.5282 10.4631 23.5465 10.0578 22.5208 9.80653ZM11.0087 14.5706C10.4631 15.4738 10.0578 16.4545 9.80652 17.4792L10.7611 17.7149C10.9907 16.7861 11.3588 15.8971 11.853 15.0778L11.0087 14.5706ZM10.4837 20C10.4836 19.5227 10.5195 19.046 10.5911 18.574L9.61858 18.4249C9.46047 19.468 9.46047 20.529 9.61858 21.5721L10.5911 21.426C10.5196 20.954 10.4837 20.4773 10.4837 20ZM25.4264 28.9883L24.9222 28.147C24.1042 28.6417 23.2162 29.0098 22.2881 29.2389L22.5238 30.1935C23.5465 29.9404 24.5251 29.534 25.4264 28.9883ZM29.5163 20C29.5163 20.4773 29.4804 20.954 29.4089 21.426L30.3814 21.5721C30.5395 20.529 30.5395 19.468 30.3814 18.4249L29.4089 18.574C29.4805 19.046 29.5164 19.5227 29.5163 20ZM30.1935 22.5178L29.2389 22.2821C29.0098 23.2121 28.6418 24.1021 28.147 24.9222L28.9913 25.4294C29.5374 24.5254 29.9428 23.5437 30.1935 22.5178ZM21.426 29.4089C20.4807 29.5521 19.5193 29.5521 18.574 29.4089L18.4279 30.3814C19.47 30.5395 20.53 30.5395 21.5721 30.3814L21.426 29.4089ZM27.6608 25.6441C27.0938 26.413 26.4139 27.0919 25.6442 27.6578L26.2289 28.4513C27.0767 27.8272 27.8267 27.0801 28.4543 26.2348L27.6608 25.6441ZM25.6442 12.3392C26.414 12.9062 27.0938 13.586 27.6608 14.3559L28.4543 13.7652C27.829 12.9191 27.0809 12.1711 26.2348 11.5457L25.6442 12.3392ZM12.3392 14.3559C12.9062 13.586 13.586 12.9062 14.3558 12.3392L13.7652 11.5457C12.9191 12.1711 12.171 12.9191 11.5457 13.7652L12.3392 14.3559ZM28.9913 14.5706L28.147 15.0778C28.6417 15.8958 29.0098 16.7838 29.2389 17.7119L30.1935 17.4762C29.9422 16.4524 29.5368 15.4727 28.9913 14.5706ZM18.574 10.5911C19.5193 10.4479 20.4807 10.4479 21.426 10.5911L21.5721 9.61859C20.53 9.46047 19.47 9.46047 18.4279 9.61859L18.574 10.5911ZM12.8434 28.7138L10.8118 29.1852L11.2862 27.1536L10.3286 26.9299L9.85425 28.9614C9.82457 29.0874 9.82002 29.2179 9.84085 29.3457C9.86168 29.4734 9.90748 29.5957 9.97564 29.7057C10.0438 29.8157 10.133 29.9112 10.2381 29.9867C10.3432 30.0622 10.4621 30.1162 10.5881 30.1457C10.7355 30.1786 10.8882 30.1786 11.0356 30.1457L13.0671 29.6774L12.8434 28.7138ZM10.5314 26.0528L11.492 26.2736L11.8202 24.8655C11.341 24.0617 10.984 23.191 10.7611 22.2821L9.80652 22.5178C10.0212 23.3878 10.346 24.2269 10.7731 25.0147L10.5314 26.0528ZM15.1255 28.1828L13.7175 28.511L13.9412 29.4715L14.9763 29.2299C15.7636 29.6582 16.6028 29.9831 17.4733 30.1965L17.7089 29.2418C16.8029 29.016 15.9353 28.6571 15.1345 28.1768L15.1255 28.1828ZM20 11.4682C15.2866 11.4711 11.4711 15.2926 11.4711 20.003C11.4737 21.6074 11.9275 23.1787 12.7807 24.5374L11.9604 28.0396L15.4596 27.2193C19.4481 29.7281 24.7164 28.5318 27.2252 24.5463C29.7341 20.5608 28.5408 15.2926 24.5553 12.7807C23.1909 11.9227 21.6118 11.4677 20 11.4682Z" fill="white"/>
</svg>
